<mxfile host="app.diagrams.net" modified="2023-06-28T16:53:55.922Z" agent="Mozilla/5.0 (Macintosh; Intel Mac OS X 10_15_7) AppleWebKit/537.36 (KHTML, like Gecko) Chrome/114.0.0.0 Safari/537.36" etag="tW_KNPAZjKX2K4Y1aLys" version="21.1.0" type="github">
  <diagram name="PÃ¡gina-1" id="pzdx3Y8yiVqQuR7hvQ3V">
    <mxGraphModel dx="1077" dy="670" grid="1" gridSize="10" guides="1" tooltips="1" connect="1" arrows="1" fold="1" page="1" pageScale="1" pageWidth="827" pageHeight="1169" math="0" shadow="0">
      <root>
        <mxCell id="0" />
        <mxCell id="1" parent="0" />
        <mxCell id="82q-a19smasViUKn8oLQ-1" value="Ejecutivo&lt;br&gt;" style="shape=umlActor;verticalLabelPosition=bottom;verticalAlign=top;html=1;outlineConnect=0;" vertex="1" parent="1">
          <mxGeometry x="70" y="90" width="30" height="60" as="geometry" />
        </mxCell>
        <mxCell id="82q-a19smasViUKn8oLQ-2" value="" style="endArrow=none;dashed=1;html=1;dashPattern=1 3;strokeWidth=2;rounded=0;" edge="1" parent="1" source="82q-a19smasViUKn8oLQ-3" target="82q-a19smasViUKn8oLQ-1">
          <mxGeometry width="50" height="50" relative="1" as="geometry">
            <mxPoint x="85" y="220" as="sourcePoint" />
            <mxPoint x="430" y="370" as="targetPoint" />
          </mxGeometry>
        </mxCell>
        <mxCell id="82q-a19smasViUKn8oLQ-3" value="" style="html=1;points=[];perimeter=orthogonalPerimeter;outlineConnect=0;targetShapes=umlLifeline;portConstraint=eastwest;newEdgeStyle={&quot;edgeStyle&quot;:&quot;elbowEdgeStyle&quot;,&quot;elbow&quot;:&quot;vertical&quot;,&quot;curved&quot;:0,&quot;rounded&quot;:0};" vertex="1" parent="1">
          <mxGeometry x="80" y="250" width="10" height="150" as="geometry" />
        </mxCell>
        <mxCell id="82q-a19smasViUKn8oLQ-4" value="&lt;p style=&quot;margin: 4px 0px 0px; text-align: center; text-decoration: underline; font-size: 8px;&quot;&gt;&lt;b style=&quot;font-size: 8px;&quot;&gt;PaymentPlan&lt;/b&gt;&lt;/p&gt;&lt;hr style=&quot;font-size: 8px;&quot;&gt;&lt;p style=&quot;margin: 0px 0px 0px 8px; font-size: 8px;&quot;&gt;Total = 4500&lt;br style=&quot;font-size: 8px;&quot;&gt;Balance = 500&lt;br style=&quot;font-size: 8px;&quot;&gt;Status = [Real,Planed,Process]&lt;/p&gt;&lt;p style=&quot;margin: 0px 0px 0px 8px; font-size: 8px;&quot;&gt;Date =&amp;nbsp;&lt;/p&gt;&lt;p style=&quot;margin: 0px 0px 0px 8px; font-size: 8px;&quot;&gt;Amount =&lt;/p&gt;&lt;p style=&quot;margin: 0px 0px 0px 8px; font-size: 8px;&quot;&gt;Percent =&lt;/p&gt;&lt;p style=&quot;margin: 0px 0px 0px 8px; font-size: 8px;&quot;&gt;Transacction Code =&lt;/p&gt;&lt;p style=&quot;margin: 0px 0px 0px 8px; font-size: 8px;&quot;&gt;Payment Type = [Floating, withholding, Credit Card]&lt;/p&gt;&lt;p style=&quot;margin: 0px 0px 0px 8px; font-size: 8px;&quot;&gt;Observations =&lt;/p&gt;&lt;p style=&quot;margin: 0px 0px 0px 8px; font-size: 8px;&quot;&gt;&lt;br style=&quot;font-size: 8px;&quot;&gt;&lt;/p&gt;" style="verticalAlign=top;align=left;overflow=fill;fontSize=8;fontFamily=Helvetica;html=1;whiteSpace=wrap;" vertex="1" parent="1">
          <mxGeometry x="160" y="90" width="210" height="110" as="geometry" />
        </mxCell>
        <mxCell id="82q-a19smasViUKn8oLQ-5" value="" style="endArrow=none;dashed=1;html=1;dashPattern=1 3;strokeWidth=2;rounded=0;" edge="1" parent="1" target="82q-a19smasViUKn8oLQ-4">
          <mxGeometry width="50" height="50" relative="1" as="geometry">
            <mxPoint x="265" y="280" as="sourcePoint" />
            <mxPoint x="400" y="360" as="targetPoint" />
            <Array as="points">
              <mxPoint x="265" y="250" />
            </Array>
          </mxGeometry>
        </mxCell>
      </root>
    </mxGraphModel>
  </diagram>
</mxfile>
